<?xml version="1.0" encoding="UTF-8" standalone="no"?>
<svg width="162px" height="162px" viewBox="0 0 162 162" version="1.1" xmlns="http://www.w3.org/2000/svg" xmlns:xlink="http://www.w3.org/1999/xlink">
    <!-- Generator: Sketch 50.2 (55047) - http://www.bohemiancoding.com/sketch -->
    <title>1</title>
    <desc>Created with Sketch.</desc>
    <defs></defs>
    <g id="Page-1" stroke="none" stroke-width="1" fill="none" fill-rule="evenodd">
        <g id="Portfolio-Detail-Page" transform="translate(-216.000000, -1721.000000)">
            <g id="Our-Process" transform="translate(50.000000, 1596.000000)">
                <g id="1" transform="translate(172.000000, 131.000000)">
                    <circle id="Oval-1" stroke="#FFFFFF" stroke-width="6" fill="#FE524A" cx="75" cy="75" r="78"></circle>
                    <g id="business-48px-outline_building" transform="translate(55.000000, 52.000000)">
                        <g id="Group" transform="translate(0.500000, 0.500000)">
                            <rect id="Rectangle-10" fill-opacity="0.200000018" fill="#FFFFFF" x="16" y="5" width="8" height="38"></rect>
                            <rect id="Rectangle-10-Copy" fill-opacity="0.200000018" fill="#FFFFFF" x="12" y="11" width="4" height="15"></rect>
                            <rect id="Rectangle-10-Copy-2" fill-opacity="0.200000018" fill="#FFFFFF" x="24" y="11" width="4" height="9"></rect>
                            <rect id="Rectangle-10-Copy-3" fill-opacity="0.200000018" fill="#FFFFFF" x="25" y="21" width="14" height="22"></rect>
                            <rect id="Rectangle-10-Copy-4" fill-opacity="0.200000018" fill="#FFFFFF" x="1" y="25" width="14" height="18"></rect>
                            <polyline id="Shape" stroke="#FFFFFF" stroke-width="3" stroke-linecap="round" stroke-linejoin="round" points="28 20 28 10 24 10 24 4 16 4 16 10 12 10 12 26"></polyline>
                            <path d="M12,44 L28,44" id="Shape" stroke="#FFFFFF" stroke-width="3" stroke-linecap="round" stroke-linejoin="round"></path>
                            <path d="M20,0 L20,4" id="Shape" stroke="#FFFFFF" stroke-width="3" stroke-linecap="round" stroke-linejoin="round"></path>
                            <rect id="Rectangle-path" stroke="#FFFFFF" stroke-width="3" stroke-linecap="round" stroke-linejoin="round" x="0" y="26" width="16" height="18"></rect>
                            <rect id="Rectangle-path" stroke="#FFFFFF" stroke-width="3" stroke-linecap="round" stroke-linejoin="round" x="24" y="20" width="16" height="24"></rect>
                            <path d="M30,26 L34,26" id="Shape" stroke="#FFFFFF" stroke-width="3" stroke-linecap="round" stroke-linejoin="round"></path>
                            <path d="M30,32 L34,32" id="Shape" stroke="#FFFFFF" stroke-width="3" stroke-linecap="round" stroke-linejoin="round"></path>
                            <path d="M30,38 L34,38" id="Shape" stroke="#FFFFFF" stroke-width="3" stroke-linecap="round" stroke-linejoin="round"></path>
                            <path d="M6,32 L10,32" id="Shape" stroke="#FFFFFF" stroke-width="3" stroke-linecap="round" stroke-linejoin="round"></path>
                            <path d="M6,38 L10,38" id="Shape" stroke="#FFFFFF" stroke-width="3" stroke-linecap="round" stroke-linejoin="round"></path>
                        </g>
                    </g>
                </g>
            </g>
        </g>
    </g>
</svg>