<?xml version="1.0" encoding="UTF-8" standalone="no"?>
<svg width="162px" height="162px" viewBox="0 0 162 162" version="1.1" xmlns="http://www.w3.org/2000/svg" xmlns:xlink="http://www.w3.org/1999/xlink">
    <!-- Generator: Sketch 50.2 (55047) - http://www.bohemiancoding.com/sketch -->
    <title>4</title>
    <desc>Created with Sketch.</desc>
    <defs></defs>
    <g id="Page-1" stroke="none" stroke-width="1" fill="none" fill-rule="evenodd">
        <g id="Portfolio-Detail-Page" transform="translate(-216.000000, -1966.000000)">
            <g id="Our-Process" transform="translate(50.000000, 1596.000000)">
                <g id="4" transform="translate(172.000000, 376.000000)">
                    <circle id="Oval-1" stroke="#FFFFFF" stroke-width="6" fill="#F4F8FC" cx="75" cy="75" r="78"></circle>
                    <g id="arrows-48px-outline-2_curve-directions" transform="translate(55.000000, 54.000000)" stroke="#0D253E" stroke-linecap="round" stroke-linejoin="round" stroke-width="3">
                        <g id="Group" transform="translate(0.500000, 0.500000)">
                            <path d="M0,24 L10,24 C15.5,24 20,28.5 20,34 L20,42" id="Shape"></path>
                            <path d="M40,24 L30,24 C24.5,24 20,28.5 20,34 L20,42" id="Shape"></path>
                            <path d="M20,36 L20,0" id="Shape"></path>
                            <polyline id="Shape" points="6 30 0 24 6 18"></polyline>
                            <polyline id="Shape" points="34 30 40 24 34 18"></polyline>
                            <polyline id="Shape" points="12 8 20 0 28 8"></polyline>
                        </g>
                    </g>
                </g>
            </g>
        </g>
    </g>
</svg>