<?xml version="1.0" encoding="UTF-8" standalone="no"?>
<svg width="162px" height="162px" viewBox="0 0 162 162" version="1.1" xmlns="http://www.w3.org/2000/svg" xmlns:xlink="http://www.w3.org/1999/xlink">
    <!-- Generator: Sketch 50.2 (55047) - http://www.bohemiancoding.com/sketch -->
    <title>6</title>
    <desc>Created with Sketch.</desc>
    <defs></defs>
    <g id="Page-1" stroke="none" stroke-width="1" fill="none" fill-rule="evenodd">
        <g id="Portfolio-Detail-Page" transform="translate(-1016.000000, -1966.000000)" stroke="#FFFFFF">
            <g id="Our-Process" transform="translate(50.000000, 1596.000000)">
                <g id="6" transform="translate(972.000000, 376.000000)">
                    <circle id="Oval-1-Copy-2" stroke-width="6" fill="#FE524A" cx="75" cy="75" r="78"></circle>
                    <g id="users-48px-outline_circle-09" transform="translate(53.000000, 53.000000)" stroke-linecap="round" stroke-linejoin="round" stroke-width="3">
                        <circle id="Oval" fill-opacity="0.200000018" fill="#FFFFFF" cx="22.5" cy="22.5" r="22"></circle>
                        <g id="Group" transform="translate(8.500000, 8.500000)">
                            <path d="M28,31 C27.7,26.2 25,24.7 21,23.4 C18,22.4 17.1,19.2 16.9,17.5" id="Shape"></path>
                            <path d="M11.1,17.4 C10.9,19.1 10,22.3 7,23.4 C3,24.7 0.3,26.2 0,31" id="Shape"></path>
                            <path d="M14,18 L14,18 C9.6,18 6,14.4 6,10 L6,8 C6,3.6 9.6,0 14,0 L14,0 C18.4,0 22,3.6 22,8 L22,10 C22,14.4 18.4,18 14,18 L14,18 Z" id="Shape"></path>
                        </g>
                    </g>
                </g>
            </g>
        </g>
    </g>
</svg>