<?xml version="1.0" encoding="UTF-8" standalone="no"?>
<svg width="20px" height="20px" viewBox="0 0 20 20" version="1.1" xmlns="http://www.w3.org/2000/svg" xmlns:xlink="http://www.w3.org/1999/xlink">
    <!-- Generator: Sketch 50.2 (55047) - http://www.bohemiancoding.com/sketch -->
    <title>Group 29</title>
    <desc>Created with Sketch.</desc>
    <defs></defs>
    <g id="Page-1" stroke="none" stroke-width="1" fill="none" fill-rule="evenodd">
        <g id="INNOBOX---Landing-page-V2" transform="translate(-827.000000, -6185.000000)">
            <g id="contact-us" transform="translate(0.000000, 5887.000000)">
                <g id="Group-30">
                    <g id="Group-26">
                        <g id="Form" transform="translate(92.000000, 148.000000)">
                            <g id="Group-28">
                                <g id="Group-33" transform="translate(733.000000, 72.000000)">
                                    <g id="Group-34-Copy-3" transform="translate(0.000000, 72.000000)">
                                        <g id="Group-29" transform="translate(0.000000, 4.000000)">
                                            <rect id="Rectangle-8" fill="#D8D8D8" opacity="0" x="0" y="0" width="24" height="24"></rect>
                                            <g id="call-answer" transform="translate(2.000000, 2.000000)" fill="#FE524A" fill-rule="nonzero">
                                                <path d="M19.4998854,15.8093678 L16.4193696,12.7196552 C15.805788,12.1067816 14.7896848,12.1254023 14.1547278,12.7624138 L12.6027507,14.3185057 C12.5046991,14.2643103 12.4032092,14.2077011 12.2965043,14.1476437 C11.316447,13.603046 9.97507163,12.8566092 8.56355301,11.44 C7.147851,10.0204023 6.40286533,8.67310345 5.85816619,7.6895977 C5.80068768,7.5854023 5.74561605,7.48494253 5.69123209,7.38954023 L6.73283668,6.34649425 L7.24492837,5.83229885 C7.8808596,5.19436782 7.89839542,4.17563218 7.28624642,3.56097701 L4.20573066,0.47091954 C3.59358166,-0.142873563 2.57702006,-0.124252874 1.94108883,0.513678161 L1.07289398,1.38936782 L1.09661891,1.41298851 C0.805501433,1.78551724 0.562234957,2.21517241 0.381203438,2.67850575 C0.214326648,3.11954023 0.110429799,3.5404023 0.0629226361,3.96212644 C-0.343839542,7.34396552 1.19713467,10.4347126 5.3791404,14.6287931 C11.1599427,20.4258046 15.81851,19.9878736 16.0194842,19.9664943 C16.457192,19.914023 16.8766762,19.8091379 17.3029799,19.6431034 C17.7609742,19.4636782 18.1891117,19.2200575 18.5603438,18.9287356 L18.5793123,18.9456322 L19.4588539,18.0818966 C20.093467,17.4440805 20.1117479,16.425 19.4998854,15.8093678 Z" id="Shape"></path>
                                            </g>
                                        </g>
                                    </g>
                                </g>
                            </g>
                        </g>
                    </g>
                </g>
            </g>
        </g>
    </g>
</svg>