<?xml version="1.0" encoding="utf-8"?>
<!-- Generator: Adobe Illustrator 22.0.0, SVG Export Plug-In . SVG Version: 6.00 Build 0)  -->
<svg version="1.1" id="Layer_1" xmlns="http://www.w3.org/2000/svg" xmlns:xlink="http://www.w3.org/1999/xlink" x="0px" y="0px"
	 viewBox="0 0 59 60" style="enable-background:new 0 0 59 60;" xml:space="preserve">
<style type="text/css">
	.st0{fill:#FFFFFF;}
</style>
<g>
	<g>
		<path class="st0" d="M45.7,40.3c-1.1-2.3-5-5.4-8.7-8.5c-2.1-1.7-4.1-3.3-5.3-4.6c-0.3-0.3-0.8-0.4-1.2-0.3
			c-0.8,0.3-1.3,0.5-1.6,0.7c-0.6,0.3-0.8,0.3-1.6,0.4c-0.3,0-0.7,0.2-0.8,0.5c-1.6,2.4-3.3,2.2-4.5,1.9c-0.4-0.1-0.4-0.3-0.5-0.4
			c-0.2-1,1-3.4,2.6-5c3.8-3.8,5.7-4.7,9.8-2.9c4.6,2.1,9.3,3.7,9.3,3.7c0.6,0.2,1.3-0.1,1.5-0.7c0.2-0.6-0.1-1.3-0.7-1.5
			c0,0-4.6-1.6-9.2-3.6c-5.3-2.4-8.2-0.8-12.4,3.3c-1.6,1.6-3.7,4.8-3.2,7.1c0.2,1,0.9,1.7,2,2.1c2.6,0.9,5,0,6.8-2.3
			c0.7-0.1,1.1-0.3,1.7-0.5c0.2-0.1,0.5-0.2,0.8-0.3c1.3,1.2,3.1,2.7,5,4.2c3.4,2.7,7.2,5.9,8.1,7.7c0.4,0.9,0,1.5-0.3,1.7
			c-0.5,0.4-1.1,0.5-1.4,0.3c-0.4-0.3-0.9-0.3-1.2,0c-0.4,0.2-0.6,0.7-0.6,1.1c0.1,0.7-0.6,1.2-0.9,1.3c-0.7,0.4-1.5,0.3-1.8,0
			c-0.3-0.3-0.8-0.4-1.2-0.2c-0.4,0.2-0.7,0.5-0.7,1c-0.1,0.8-0.6,1.5-1.4,1.8c-0.4,0.1-0.9,0.2-1.3-0.2c-0.3-0.3-0.7-0.4-1.1-0.3
			c-0.4,0.1-0.7,0.4-0.8,0.7c0,0.1-0.1,0.4-1.2,0.4c-0.8,0-2.2-0.5-2.8-1c-0.8-0.5-5.9-4.3-10.3-8c-0.6-0.5-1.7-1.6-2.6-2.6
			c-0.8-0.9-1.6-1.7-2-2c-0.5-0.4-1.2-0.4-1.6,0.1c-0.4,0.5-0.4,1.2,0.1,1.6c0.4,0.3,1.1,1,1.8,1.8c1,1.1,2.1,2.2,2.8,2.8
			c4.3,3.6,9.5,7.5,10.5,8.2c0.9,0.6,2.7,1.3,4.1,1.3c1.1,0,2-0.3,2.6-0.8c0.8,0.3,1.7,0.3,2.6,0c1.1-0.4,1.9-1.2,2.4-2.2
			c0.9,0.2,2,0.1,2.9-0.4c0.9-0.5,1.6-1.2,1.9-2c0.9,0,1.9-0.3,2.7-0.9C46.1,43.6,46.5,41.9,45.7,40.3z"/>
	</g>
</g>
<g>
	<g>
		<path class="st0" d="M25,21.1H14.6c-0.6,0-1.2,0.5-1.2,1.2c0,0.6,0.5,1.2,1.2,1.2H25c0.6,0,1.2-0.5,1.2-1.2
			C26.2,21.6,25.7,21.1,25,21.1z"/>
	</g>
</g>
<g>
	<g>
		<path class="st0" d="M49.1,37.8c-0.4-0.5-1.1-0.7-1.6-0.3l-3.4,2.3c-0.5,0.4-0.7,1.1-0.3,1.6c0.2,0.3,0.6,0.5,1,0.5
			c0.2,0,0.4-0.1,0.6-0.2l3.4-2.3C49.3,39.1,49.5,38.3,49.1,37.8z"/>
	</g>
</g>
<g>
	<g>
		<path class="st0" d="M41.9,43.3c-0.8-0.7-4.5-4.4-6.8-6.8c-0.4-0.5-1.2-0.5-1.6,0c-0.5,0.4-0.5,1.2,0,1.6c0.6,0.6,5.8,6.1,7.1,7
			c0.2,0.2,0.5,0.2,0.7,0.2c0.3,0,0.7-0.2,0.9-0.4C42.5,44.4,42.4,43.7,41.9,43.3z"/>
	</g>
</g>
<g>
	<g>
		<path class="st0" d="M37.3,45.6c-1.4-1.1-4.9-4.8-5.6-5.7c-0.4-0.5-1.2-0.5-1.6-0.1c-0.5,0.4-0.5,1.2-0.1,1.6c0,0,4.2,4.5,5.9,5.9
			c0.2,0.2,0.5,0.3,0.7,0.3c0.3,0,0.7-0.2,0.9-0.4C37.9,46.8,37.8,46,37.3,45.6z"/>
	</g>
</g>
<g>
	<g>
		<path class="st0" d="M32.7,48c-1.6-1.4-5-5-5.7-5.7c-0.4-0.5-1.2-0.5-1.6-0.1c-0.5,0.4-0.5,1.2-0.1,1.6c0.9,1,4.2,4.4,5.9,5.9
			c0.2,0.2,0.5,0.3,0.7,0.3c0.3,0,0.7-0.1,0.9-0.4C33.3,49.1,33.2,48.4,32.7,48z"/>
	</g>
</g>
<g>
	<g>
		<path class="st0" d="M15.4,19.1c-2-1.9-9.9-2.5-12.3-2.6c-0.3,0-0.6,0.1-0.9,0.3c-0.2,0.2-0.4,0.5-0.4,0.8v20.8
			c0,0.6,0.5,1.2,1.2,1.2H10c0.5,0,0.9-0.3,1.1-0.8c0.2-0.5,4.2-12.7,4.7-18.7C15.8,19.7,15.7,19.4,15.4,19.1z M9.2,37.3H4.2V18.9
			c3.7,0.3,7.7,0.9,9.2,1.6C12.8,25.6,10,34.6,9.2,37.3z"/>
	</g>
</g>
<g>
	<g>
		<path class="st0" d="M56.2,18.8c-9.1,0-14.1,2.3-14.3,2.4c-0.3,0.1-0.5,0.4-0.6,0.7c-0.1,0.3,0,0.7,0.1,0.9
			c1.4,2.3,5.9,15.1,6.8,18.2c0.1,0.5,0.6,0.8,1.1,0.8h6.9c0.6,0,1.2-0.5,1.2-1.2V20C57.4,19.3,56.9,18.8,56.2,18.8z M55.1,39.6
			h-4.9C49.1,36,45.8,26.7,44,22.9c1.8-0.6,5.6-1.6,11-1.8V39.6z"/>
	</g>
</g>
</svg>
