<?xml version="1.0" encoding="UTF-8" standalone="no"?>
<svg width="24px" height="17px" viewBox="0 0 24 17" version="1.1" xmlns="http://www.w3.org/2000/svg" xmlns:xlink="http://www.w3.org/1999/xlink">
    <!-- Generator: Sketch 50.2 (55047) - http://www.bohemiancoding.com/sketch -->
    <title>Group 29</title>
    <desc>Created with Sketch.</desc>
    <defs></defs>
    <g id="Page-1" stroke="none" stroke-width="1" fill="none" fill-rule="evenodd">
        <g id="INNOBOX---Landing-page-V2" transform="translate(-825.000000, -6330.000000)" fill="#FE524A">
            <g id="contact-us" transform="translate(0.000000, 5887.000000)">
                <g id="Group-30">
                    <g id="Group-26">
                        <g id="Form" transform="translate(92.000000, 148.000000)">
                            <g id="Group-28">
                                <g id="Group-33" transform="translate(733.000000, 72.000000)">
                                    <g id="Group-34-Copy" transform="translate(0.000000, 216.000000)">
                                        <g id="Group-29" transform="translate(0.000000, 4.000000)">
                                            <rect id="Rectangle-8" opacity="0" x="0" y="0" width="24" height="24"></rect>
                                            <g id="black-envelope" transform="translate(0.000000, 3.000000)" fill-rule="nonzero">
                                                <path d="M1.88828571,1.13135 L10.4888571,7.88715 C10.8788571,8.19315 11.4162857,8.32915 11.9382857,8.30365 C12.4594286,8.32915 12.9968571,8.194 13.3868571,7.88715 L21.9874286,1.13135 C22.6765714,0.5933 22.5205714,0.15215 21.6462857,0.15215 L11.9391429,0.15215 L2.232,0.15215 C1.35685714,0.15215 1.20085714,0.5933 1.88828571,1.13135 Z" id="Shape"></path>
                                                <path d="M22.6088571,2.9138 L13.2102857,9.99005 C12.8588571,10.25185 12.3985714,10.37935 11.94,10.3734 C11.4805714,10.37935 11.0202857,10.251 10.6688571,9.99005 L1.26857143,2.9138 C0.570857143,2.38935 0,2.6707 0,3.53855 L0,15.1487 C0,16.01655 0.716571429,16.72715 1.59171429,16.72715 L11.9382857,16.72715 L22.2857143,16.72715 C23.1608571,16.72715 23.8774286,16.01655 23.8774286,15.1487 L23.8774286,3.53855 C23.8774286,2.6707 23.3065714,2.38935 22.6088571,2.9138 Z" id="Shape"></path>
                                            </g>
                                        </g>
                                    </g>
                                </g>
                            </g>
                        </g>
                    </g>
                </g>
            </g>
        </g>
    </g>
</svg>