<?xml version="1.0" encoding="UTF-8" standalone="no"?>
<svg width="22px" height="24px" viewBox="0 0 22 24" version="1.1" xmlns="http://www.w3.org/2000/svg" xmlns:xlink="http://www.w3.org/1999/xlink">
    <!-- Generator: Sketch 50.2 (55047) - http://www.bohemiancoding.com/sketch -->
    <title>Group 29</title>
    <desc>Created with Sketch.</desc>
    <defs></defs>
    <g id="Page-1" stroke="none" stroke-width="1" fill="none" fill-rule="evenodd">
        <g id="INNOBOX---Landing-page-V2" transform="translate(-826.000000, -6255.000000)">
            <g id="contact-us" transform="translate(0.000000, 5887.000000)">
                <g id="Group-30">
                    <g id="Group-26">
                        <g id="Form" transform="translate(92.000000, 148.000000)">
                            <g id="Group-28">
                                <g id="Group-33" transform="translate(733.000000, 72.000000)">
                                    <g id="Group-34-Copy-2" transform="translate(0.000000, 144.000000)">
                                        <g id="Group-29" transform="translate(0.000000, 4.000000)">
                                            <rect id="Rectangle-8" fill="#D8D8D8" opacity="0" x="0" y="0" width="24" height="24"></rect>
                                            <g id="fax" transform="translate(1.000000, 0.000000)" fill="#FE524A" fill-rule="nonzero">
                                                <path d="M21.1423296,5.24072727 L21.1423296,0.8 C21.1423296,0.358141414 20.7769813,0 20.3265993,0 L9.5589588,0 C9.10849438,0 8.74322846,0.358222222 8.74322846,0.8 L8.74322846,5.23991919 L8.37614981,5.23991919 L8.37614981,20.0399192 L10.8232584,20.0399192 L10.8232584,21.7599192 C10.8232584,22.1128081 10.5305019,22.3999192 10.1706742,22.3999192 L5.03157303,22.3999192 C4.6778427,22.3999192 4.37898876,22.1617778 4.37898876,21.8798384 L4.37898876,21.3599192 L6.25516854,21.3599192 C6.70563296,21.3599192 7.07089888,21.001697 7.07089888,20.5599192 L7.07089888,4.72 C7.07089888,4.27814141 6.70555056,3.92 6.25516854,3.92 L0.871348315,3.92 C0.420883895,3.92 0.0556179775,4.27822222 0.0556179775,4.72 L0.0556179775,20.56 C0.0556179775,21.0018586 0.420966292,21.36 0.871348315,21.36 L2.74752809,21.36 L2.74752809,21.8799192 C2.74752809,23.0489697 3.77213483,24 5.03157303,24 L10.1705918,24 C11.43003,24 12.4547191,22.9951515 12.4547191,21.76 L12.4547191,20.04 L21.1286517,20.04 C21.5791161,20.04 21.944382,19.6817778 21.944382,19.24 L21.944382,6.04 C21.944382,5.60274747 21.5862846,5.24783838 21.1423296,5.24072727 Z M11.6389888,15.92 L10.2931161,15.92 C9.93262921,15.92 9.64053184,15.6334545 9.64053184,15.28 C9.64053184,14.9265455 9.93262921,14.64 10.2931161,14.64 L11.6389888,14.64 C11.9994757,14.64 12.291573,14.9265455 12.291573,15.28 C12.291573,15.6334545 11.9994757,15.92 11.6389888,15.92 Z M11.6389888,13.28 L10.2931161,13.28 C9.93262921,13.28 9.64053184,12.9934545 9.64053184,12.64 C9.64053184,12.2865455 9.93262921,12 10.2931161,12 L11.6389888,12 C11.9994757,12 12.291573,12.2865455 12.291573,12.64 C12.291573,12.9934545 11.9994757,13.28 11.6389888,13.28 Z M11.6389888,10.64 L10.2931161,10.64 C9.93262921,10.64 9.64053184,10.3534545 9.64053184,10 C9.64053184,9.64654545 9.93262921,9.36 10.2931161,9.36 L11.6389888,9.36 C11.9994757,9.36 12.291573,9.64654545 12.291573,10 C12.291573,10.3534545 11.9994757,10.64 11.6389888,10.64 Z M15.6769363,15.92 L14.3308989,15.92 C13.9705768,15.92 13.6783146,15.6334545 13.6783146,15.28 C13.6783146,14.9265455 13.9705768,14.64 14.3308989,14.64 L15.6769363,14.64 C16.0372584,14.64 16.3295206,14.9265455 16.3295206,15.28 C16.3295206,15.6334545 16.0372584,15.92 15.6769363,15.92 Z M15.6769363,13.28 L14.3308989,13.28 C13.9705768,13.28 13.6783146,12.9934545 13.6783146,12.64 C13.6783146,12.2865455 13.9705768,12 14.3308989,12 L15.6769363,12 C16.0372584,12 16.3295206,12.2865455 16.3295206,12.64 C16.3295206,12.9934545 16.0372584,13.28 15.6769363,13.28 Z M15.6769363,10.64 L14.3308989,10.64 C13.9705768,10.64 13.6783146,10.3534545 13.6783146,10 C13.6783146,9.64654545 13.9705768,9.36 14.3308989,9.36 L15.6769363,9.36 C16.0372584,9.36 16.3295206,9.64654545 16.3295206,10 C16.3295206,10.3534545 16.0372584,10.64 15.6769363,10.64 Z M12.2508689,4.04 C11.890382,4.04 11.5982846,3.75345455 11.5982846,3.4 C11.5982846,3.04654545 11.890382,2.76 12.2508689,2.76 L17.6346891,2.76 C17.9950112,2.76 18.2872734,3.04654545 18.2872734,3.4 C18.2872734,3.75345455 17.9950112,4.04 17.6346891,4.04 L12.2508689,4.04 Z M19.7147191,15.92 L18.3688464,15.92 C18.0083596,15.92 17.7162622,15.6334545 17.7162622,15.28 C17.7162622,14.9265455 18.0083596,14.64 18.3688464,14.64 L19.7147191,14.64 C20.075206,14.64 20.3673034,14.9265455 20.3673034,15.28 C20.3673034,15.6334545 20.075206,15.92 19.7147191,15.92 Z M19.7147191,13.28 L18.3688464,13.28 C18.0083596,13.28 17.7162622,12.9934545 17.7162622,12.64 C17.7162622,12.2865455 18.0083596,12 18.3688464,12 L19.7147191,12 C20.075206,12 20.3673034,12.2865455 20.3673034,12.64 C20.3673034,12.9934545 20.075206,13.28 19.7147191,13.28 Z M19.7147191,10.64 L18.3688464,10.64 C18.0083596,10.64 17.7162622,10.3534545 17.7162622,10 C17.7162622,9.64654545 18.0083596,9.36 18.3688464,9.36 L19.7147191,9.36 C20.075206,9.36 20.3673034,9.64654545 20.3673034,10 C20.3673034,10.3534545 20.075206,10.64 19.7147191,10.64 Z" id="Shape"></path>
                                            </g>
                                        </g>
                                    </g>
                                </g>
                            </g>
                        </g>
                    </g>
                </g>
            </g>
        </g>
    </g>
</svg>