<?xml version="1.0" encoding="UTF-8" standalone="no"?>
<svg width="18px" height="24px" viewBox="0 0 18 24" version="1.1" xmlns="http://www.w3.org/2000/svg" xmlns:xlink="http://www.w3.org/1999/xlink">
    <!-- Generator: Sketch 50.2 (55047) - http://www.bohemiancoding.com/sketch -->
    <title>Group 29</title>
    <desc>Created with Sketch.</desc>
    <defs></defs>
    <g id="Page-1" stroke="none" stroke-width="1" fill="none" fill-rule="evenodd">
        <g id="INNOBOX---Landing-page-V2" transform="translate(-828.000000, -6111.000000)">
            <g id="contact-us" transform="translate(0.000000, 5887.000000)">
                <g id="Group-30">
                    <g id="Group-26">
                        <g id="Form" transform="translate(92.000000, 148.000000)">
                            <g id="Group-28">
                                <g id="Group-33" transform="translate(733.000000, 72.000000)">
                                    <g id="Group-34">
                                        <g id="Group-29" transform="translate(0.000000, 4.000000)">
                                            <rect id="Rectangle-8" fill="#D8D8D8" opacity="0" x="0" y="0" width="24" height="24"></rect>
                                            <g id="maps-and-flags" transform="translate(3.000000, 0.000000)" fill="#FE524A" fill-rule="nonzero">
                                                <path d="M8.625,0 C3.86914931,0 0,3.899161 0,8.69185434 C0,14.6397366 7.71853007,23.3715754 8.04715333,23.7403883 C8.35582197,24.0868419 8.8947362,24.0862325 9.20284667,23.7403883 C9.53146993,23.3715754 17.25,14.6397366 17.25,8.69185434 C17.249907,3.899161 13.3808042,0 8.625,0 Z M8.625,13.064969 C6.23221335,13.064969 4.2855915,11.103201 4.2855915,8.69185434 C4.2855915,6.28050765 6.23225987,4.31878651 8.625,4.31878651 C11.0177401,4.31878651 12.964362,6.28055453 12.964362,8.69190122 C12.964362,11.1032479 11.0177401,13.064969 8.625,13.064969 Z" id="Shape"></path>
                                            </g>
                                        </g>
                                    </g>
                                </g>
                            </g>
                        </g>
                    </g>
                </g>
            </g>
        </g>
    </g>
</svg>