<?xml version="1.0" encoding="UTF-8" standalone="no"?>
<svg width="59px" height="60px" viewBox="0 0 59 60" version="1.1" xmlns="http://www.w3.org/2000/svg" xmlns:xlink="http://www.w3.org/1999/xlink">
    <!-- Generator: Sketch 50.2 (55047) - http://www.bohemiancoding.com/sketch -->
    <title>Fill 1</title>
    <desc>Created with Sketch.</desc>
    <defs></defs>
    <g id="Page-1" stroke="none" stroke-width="1" fill="none" fill-rule="evenodd">
        <g id="INNOBOX---Landing-page-V2" transform="translate(-256.000000, -3611.000000)" fill="#FE524A" stroke="#FFFFFF" stroke-width="0.6">
            <g id="Section3" transform="translate(72.000000, 3519.000000)">
                <g id="Bullet" transform="translate(137.400000, 23.520000)">
                    <g id="Microphone" transform="translate(47.000000, 69.000000)">
                        <path d="M48.3645,19.54848 L56.6079,18.94848 C57.4365,18.88728 58.1577,19.50888 58.2195,20.33748 C58.2807,21.16608 57.6585,21.88728 56.8299,21.94848 L48.5865,22.54848 L48.4725,22.54848 C47.6439,22.57848 46.9485,21.93108 46.9185,21.10248 C46.8885,20.27388 47.5359,19.57848 48.3645,19.54848 L48.3645,19.54848 Z M39.9645,7.51248 L44.6265,0.66048 C45.0951,-0.02892 46.0341,-0.20712 46.7235,0.26148 C47.4123,0.73068 47.5911,1.66908 47.1225,2.35848 L42.4365,9.18048 C41.9691,9.86448 41.0355,10.04088 40.3515,9.57348 C39.6669,9.10608 39.4911,8.17308 39.9579,7.48848 L39.9645,7.51248 Z M44.8485,12.97248 L52.0125,8.85048 C52.7487,8.47068 53.6529,8.75928 54.0333,9.49488 C54.3891,10.18488 54.1605,11.03148 53.5059,11.44848 L46.3425,15.54648 C45.5787,15.86868 44.6997,15.51168 44.3769,14.74848 C44.1105,14.11848 44.3043,13.38768 44.8485,12.97248 L44.8485,12.97248 Z M4.6899,28.70448 L10.9425,25.10448 L18.8019,38.77308 L12.5505,42.37308 C10.9347,43.29828 8.8743,42.73908 7.9485,41.12328 C7.9461,41.11968 7.9443,41.11608 7.9425,41.11248 L3.4545,33.31248 C2.5257,31.69848 3.0783,29.63688 4.6899,28.70448 L4.6899,28.70448 Z M27.8085,4.78248 C36.7461,12.37548 42.7671,22.83828 44.8425,34.38048 L29.1825,33.57048 L20.6445,18.73248 L27.8085,4.78248 Z M29.5605,50.62848 C30.3375,52.21848 29.6787,54.13728 28.0893,54.91428 C26.4993,55.69128 24.5805,55.03248 23.8029,53.44308 C23.7603,53.35428 23.7213,53.26428 23.6865,53.17308 L19.7925,41.64648 L23.6445,39.42648 L29.5605,50.62848 Z M18.3825,20.82048 L26.2425,34.47048 L21.4065,37.25448 L13.5225,23.60448 L18.3825,20.82048 Z M5.3385,42.60648 C6.1731,44.08368 7.5645,45.16428 9.2019,45.60648 C9.7461,45.75348 10.3071,45.82788 10.8705,45.82848 C11.9829,45.82728 13.0755,45.53388 14.0385,44.97648 L17.1345,43.17648 L20.8425,54.12048 C21.9417,57.36588 25.4643,59.10468 28.7091,58.00548 C31.9539,56.90568 33.6939,53.38368 32.5941,50.13888 C32.4891,49.82808 32.3589,49.52628 32.2059,49.23648 L26.2425,37.93248 L28.6425,36.54648 L46.5225,37.47048 C47.3493,37.52448 48.0627,36.89808 48.1167,36.07128 C48.1233,35.97168 48.1197,35.87148 48.1059,35.77248 C46.1625,22.14828 39.0537,9.79368 28.2519,1.26648 C27.6033,0.75168 26.6601,0.86028 26.1447,1.50888 C26.0835,1.58628 26.0295,1.67028 25.9845,1.75848 L17.8005,17.69448 L3.1965,26.09448 C0.1449,27.85368 -0.9051,31.75248 0.8505,34.80648 L5.3385,42.60648 Z" id="Fill-1"></path>
                    </g>
                </g>
            </g>
        </g>
    </g>
</svg>